<svg xmlns="http://www.w3.org/2000/svg" data-name="Layer 30 copy 3" viewBox="0 0 100 125" x="0px" y="0px"><path d="M50,74.21c26.07,0,46.5-8.71,46.5-19.82,0-5.61-5.2-10.6-13.69-14.17a35.58,35.58,0,0,0-7.57-6.73,43.06,43.06,0,0,0-6-3.36h0a45.28,45.28,0,0,0-7.45-2.74,44.19,44.19,0,0,0-8.72-1.48h0C52,25.83,51,25.79,50,25.79a44.77,44.77,0,0,0-6.73.52,45.58,45.58,0,0,0-11.7,3.43h0A39.89,39.89,0,0,0,17.22,40.21C8.71,43.78,3.5,48.77,3.5,54.39,3.5,65.5,23.93,74.21,50,74.21ZM28.16,34.89c-2.62,4.89-3.85,9.2-3.64,12.87a1.5,1.5,0,0,0,1.06,1.35,1.62,1.62,0,0,0,.44.07,1.5,1.5,0,0,0,1.19-.6c.09-.12,9-11.79,17-19.37A41.77,41.77,0,0,1,50,28.79c-4.38,5.69-9.91,14.41-9.48,21.79a1.49,1.49,0,0,0,1.06,1.35A1.29,1.29,0,0,0,42,52a1.51,1.51,0,0,0,1.2-.6c.1-.13,10.25-13.48,18.63-20.89a43.45,43.45,0,0,1,4.53,1.59c-4,5.64-8.26,13.16-7.89,19.62a1.5,1.5,0,0,0,1.06,1.35,1.35,1.35,0,0,0,.44.07,1.51,1.51,0,0,0,1.2-.59c.06-.09,6.57-8.65,13.44-15.85,5.86,4.23,9.59,9.46,9.59,13.57,0,7.26-13.42,12-34.18,12s-34.18-4.7-34.18-12C15.82,46.05,20.12,39.71,28.16,34.89Zm10.65-4.57c-4.05,4.22-8,8.87-10.6,12.15a38.82,38.82,0,0,1,5-10.16A43.64,43.64,0,0,1,38.81,30.32ZM72.06,35c-3.79,4-7.43,8.36-10,11.46,1.3-4.52,4.23-9.29,7-13.09C70.13,33.89,71.11,34.43,72.06,35ZM58.31,29.64A165.83,165.83,0,0,0,44.16,45.3C46,39,50.88,32.39,53.67,29A39.33,39.33,0,0,1,58.31,29.64ZM50,65.23c23.28,0,37.18-5.59,37.18-15A12.61,12.61,0,0,0,85.91,45c4.77,2.7,7.59,5.93,7.59,9.36,0,9.11-19.92,16.82-43.5,16.82S6.5,63.5,6.5,54.39C6.5,51,9.33,47.72,14.11,45a12.58,12.58,0,0,0-1.29,5.25C12.82,59.64,26.72,65.23,50,65.23Z"/><text x="0" y="115" fill="#000000" font-size="5px" font-weight="bold" font-family="'Helvetica Neue', Helvetica, Arial-Unicode, Arial, Sans-serif">Created by Lars Meiertoberens</text><text x="0" y="120" fill="#000000" font-size="5px" font-weight="bold" font-family="'Helvetica Neue', Helvetica, Arial-Unicode, Arial, Sans-serif">from the Noun Project</text></svg>